<?xml version="1.0" encoding="UTF-8"?>
<svg id="Calque_1" data-name="Calque 1" xmlns="http://www.w3.org/2000/svg" viewBox="0 0 282.68 148.24">
  <defs>
    <style>
      .cls-1 {
        fill: #fff;
        stroke: #000;
        stroke-miterlimit: 10;
        stroke-width: .5px;
      }

      .cls-2 {
        stroke-width: 0px;
      }

      .cls-3 {
        font-family: FranklinGothic-Heavy, 'Franklin Gothic Heavy';
        font-size: 15px;
        font-weight: 800;
      }
    </style>
  </defs>
  <path class="cls-2" d="M23.89,147.7l-2.13-6.84h-10.1l-2.26,6.84H0l11.64-34.69h12.24l11.82,34.69h-11.81ZM13.63,133.29h6.1l-3.05-10.06-3.05,10.06Z"/>
  <path class="cls-2" d="M65.61,139.19v8.51h-26.43v-34.69h11.57v26.17h14.86Z"/>
  <path class="cls-2" d="M93.2,134.72h-12.29v12.99h-11.27v-34.69h27.26v8.26h-15.99v5.64h12.29v7.8Z"/>
  <path class="cls-2" d="M110.82,137.66l10.74-1.78c.9,2.8,3.22,4.19,6.96,4.19,2.91,0,4.36-.71,4.36-2.13,0-.75-.34-1.33-1.01-1.74-.67-.42-1.87-.78-3.6-1.1-6.61-1.17-10.86-2.69-12.73-4.57-1.88-1.88-2.82-4.09-2.82-6.63,0-3.27,1.35-5.99,4.05-8.16,2.7-2.17,6.58-3.25,11.64-3.25,7.68,0,12.75,2.84,15.22,8.51l-9.59,2.67c-.99-2.32-3.01-3.48-6.05-3.48-2.52,0-3.78.72-3.78,2.16,0,.64.29,1.14.86,1.5.57.36,1.68.69,3.31,1.02,4.51.88,7.72,1.65,9.61,2.33,1.9.68,3.48,1.83,4.75,3.47,1.27,1.64,1.9,3.57,1.9,5.79,0,3.51-1.55,6.35-4.64,8.53-3.09,2.18-7.15,3.27-12.18,3.27-9.19,0-14.86-3.52-17.01-10.57Z"/>
  <path class="cls-2" d="M169.48,147.7l-2.13-6.84h-10.1l-2.26,6.84h-9.4l11.64-34.69h12.24l11.82,34.69h-11.81ZM159.21,133.29h6.1l-3.05-10.06-3.05,10.06Z"/>
  <path class="cls-2" d="M216.75,113.01v34.69h-11.57v-13.49h-8.84v13.49h-11.57v-34.69h11.57v12.76h8.84v-12.76h11.57Z"/>
  <path class="cls-2" d="M251.66,139.42v8.28h-28.37v-34.69h28.37v8h-17.01v5.03h13.75v7.7h-13.75v5.67h17.01Z"/>
  <path class="cls-2" d="M282.68,139.19v8.51h-26.43v-34.69h11.57v26.17h14.86Z"/>
  <path class="cls-2" d="M119.95,49.09l-26.05-.74c-.57-.02-1.02.47-.96,1.04l1.15,10.61c.06.53.53.9,1.06.83l9.03-1.19c.24-.03.49.03.68.17.61.46,1.77,1.64,1,3.52-.09.21-.27.38-.47.48l-8.3,3.81c-.53.24-.71.91-.38,1.39l4.23,6.14c.29.43.88.54,1.31.24l6.45-4.44c.27-.19.62-.22.93-.08,1.06.48,3.31,1.87,2.46,4.63-.06.18-.18.35-.33.47l-5.83,4.44c-.45.35-.5,1.01-.1,1.41l6.33,6.34c.38.38.99.37,1.35-.02l5.24-5.61c.18-.19.42-.3.67-.3.93,0,3.15.25,3.5,2.69.03.25-.05.5-.21.69l-4.2,5.06c-.37.44-.26,1.1.23,1.4l9.45,5.82c.52.32,1.2.07,1.39-.51l2.75-8.61c.08-.26.27-.47.52-.57.86-.36,2.99-.9,4.89,1.37.15.17.22.41.21.63l-.24,8.38c-.02.54.42.98.96.97l10.69-.18c.55,0,.97-.48.92-1.02l-.84-9.67c-.03-.36.14-.71.45-.89.58-.33,1.68-.69,3.27-.11.27.1.47.33.55.6l2.67,8.49c.16.52.74.79,1.24.59l9.02-3.58c.54-.22.76-.87.45-1.37l-4.19-6.82c-.12-.2-.17-.43-.12-.66.17-.83.84-2.72,3.49-2.44.22.02.43.14.59.31l6.17,6.86c.35.39.96.42,1.35.05l6.84-6.46c.43-.4.38-1.09-.09-1.44l-5.99-4.4c-.29-.21-.44-.56-.37-.92.18-.98.82-2.92,3.13-3.98.32-.15.71-.07.98.16l5.68,4.92c.41.36,1.04.29,1.37-.15l5.19-6.99c.34-.46.2-1.11-.31-1.39l-8.52-4.63c-.39-.21-.58-.66-.46-1.09.24-.79.86-2.04,2.51-2.88.21-.11.47-.12.69-.06l7.83,2.33c.59.18,1.19-.26,1.21-.87l.34-11.94c.01-.52-.39-.95-.91-.97l-25.47-.73c-.48-.01-.9.34-.96.82-.51,3.94-3.72,20.45-21.38,22.1s-23.85-17.44-24.85-21.35c-.1-.41-.46-.7-.88-.71Z"/>
  <text class="cls-3" transform="translate(106.47 39.46) rotate(-66.86) scale(1.1 1)"><tspan x="0" y="0">A</tspan></text>
  <text class="cls-3" transform="translate(111.01 29.42) rotate(-48.64) scale(1.1 1)"><tspan x="0" y="0">L</tspan></text>
  <text class="cls-3" transform="translate(117.34 22.37) rotate(-33.02) scale(1.1 1)"><tspan x="0" y="0">F</tspan></text>
  <text class="cls-3" transform="translate(125.72 17.3) rotate(-21.65) scale(1.1 1)"><tspan x="0" y="0"> </tspan></text>
  <text class="cls-3" transform="translate(130.41 15.51) rotate(-14.12) scale(1.1 1)"><tspan x="0" y="0"> </tspan></text>
  <text class="cls-3" transform="translate(135.11 14.1) rotate(-2.73) scale(1.1 1)"><tspan x="0" y="0">S</tspan></text>
  <text class="cls-3" transform="translate(145.64 13.63) rotate(12.64) scale(1.1 1)"><tspan x="0" y="0">A</tspan></text>
  <text class="cls-3" transform="translate(156.47 16.07) rotate(29.72) scale(1.1 1)"><tspan x="0" y="0">H</tspan></text>
  <text class="cls-3" transform="translate(166.59 22.05) rotate(47.14) scale(1.1 1)"><tspan x="0" y="0">E</tspan></text>
  <text class="cls-3" transform="translate(173.42 29.58) rotate(64.17) scale(1.1 1)"><tspan x="0" y="0">L</tspan></text>
  <g>
    <path class="cls-1" d="M147.27,41.74s6.7-5.42,13.29-4.69c0,0-.1,8.33-9.52,11.04s-3.77-6.35-3.77-6.35Z"/>
    <path class="cls-1" d="M150.73,57.17s8.37-.07,9.84-11.4c0,0-8.48.14-14.55,4.2s4.71,7.2,4.71,7.2Z"/>
    <path class="cls-1" d="M159.73,55.05s-12.09-1.44-16.2,11.89h8.1s9.15-2.54,8.1-11.89Z"/>
    <path class="cls-1" d="M137.12,49.03s-8.58-1.04-10.26-11.98c0,0,6.49-.21,13.29,4.79s-3.04,7.19-3.04,7.19Z"/>
    <path class="cls-1" d="M136.7,57.16s-8.06.83-10.47-11.25c0,0,8.8-1.25,15.29,3.85s-4.82,7.4-4.82,7.4Z"/>
    <path class="cls-1" d="M143.53,65.7s-2.01-11.98-17.29-10.52c0,0,.63,8.85,10.47,11.77h6.83v-1.25Z"/>
    <path class="cls-1" d="M137.38,39.34s-9.84-.43-10.05-11.52c0,0,10.36.27,14.23,4.54s-4.19,6.98-4.19,6.98Z"/>
    <path class="cls-1" d="M149.95,39.34s8.79-2.3,9.52-11.52c0,0-9.52,1.31-14.86,4.85s5.34,6.67,5.34,6.67Z"/>
    <path class="cls-1" d="M136.29,29.09s3.45-9.38,7.33-9.79,7.43,10.31,7.43,10.31l-7.38,4.58-7.38-5.1Z"/>
    <path class="cls-1" d="M136.29,39.48s3.45-9.38,7.33-9.79,7.25,9.55,7.25,9.55l-7.2,5.34-7.38-5.1Z"/>
    <path class="cls-1" d="M136.7,47.13s3.04-8.06,6.91-8.48,7.01,9,7.01,9l-6.96,5.89-6.96-6.42Z"/>
    <path class="cls-1" d="M136.85,56.74s4.47-8.76,7.14-9.4,7.61,9.24,7.61,9.24c0,0-6.32,2.74-7.61,10.22,0,.05-.33.09-.35.05-.54-1.1-4.05-8.99-6.79-10.11Z"/>
    <rect class="cls-1" x="141.81" y="66.95" width="4.08" height="31.09"/>
  </g>
</svg>