<?xml version="1.0" encoding="UTF-8"?>
<svg id="Calque_1" data-name="Calque 1" xmlns="http://www.w3.org/2000/svg" viewBox="0 0 185.27 142.9">
  <defs>
    <style>
      .cls-1 {
        fill: #010101;
        stroke-width: 0px;
      }
    </style>
  </defs>
  <path class="cls-1" d="M53.33,3.8L0,51.94l51.97,49.44s-14.44-16.79-13.29-52.76c.24-7.7,1.61-15.33,3.98-22.69,2.55-7.92,6.45-18.1,10.66-22.12h0Z"/>
  <path class="cls-1" d="M119.68,16.78s-11.07-22.47-31.39-15.41c-7.28,2.53-12.97,8.07-15.76,14.96-4.59,11.35-11.42,34.1-6.23,60.15,0,0,2.62,32.52,30.85,30.19,0,0,13.85-.69,20.71-15.18,0,0-12.66,1.03-15.74-10.18-3.08-11.22,6.87-18.64,6.87-18.64,0,0,15.88-10.06,26.23,7.07.9,1.48,1.38,4.23,1.65,6.99.48,4.97.09,9.97-1.06,14.84-1.04,4.41-3.23,9.72-5.02,11.35l54.47-48.88L133.79,6.77s7.74,9.93,4.48,28.12c-.51,2.81-2.11,5.35-4.5,7.06-5.1,3.63-15.01,8.29-26.21,1.06-16.28-10.52,1.08-31.92,12.13-26.23h0Z"/>
  <path class="cls-1" d="M18.95,131.18l5.15,2.32c-.44,2.72-1.44,4.94-3.01,6.67-1.6,1.74-3.78,2.62-6.57,2.62-3.81,0-6.62-1.27-8.45-3.82-1.84-2.53-2.76-5.63-2.76-9.29s.9-6.81,2.7-9.38c1.8-2.57,4.14-3.85,7.01-3.85,2.33,0,4.23.74,5.69,2.21v-1.7h4.77v9.29h-4.96c-.26-1.16-.69-2.07-1.3-2.74-.61-.66-1.31-.99-2.09-.99-2.15,0-3.23,2.37-3.23,7.11s1.11,7.13,3.34,7.13c1.95,0,3.18-1.86,3.68-5.57h.01s0,0,0,0Z"/>
  <path class="cls-1" d="M33.02,129.61l-5.63-.73c.62-1.74,1.62-2.96,3-3.67,1.36-.7,3.37-1.06,6.03-1.06.98,0,1.86.04,2.63.12.78.08,1.47.2,2.08.36,1.27.31,2.2.77,2.82,1.41.61.65,1.03,1.34,1.27,2.08.24.77.37,1.96.37,3.58v5.12h1.77v5.57h-8.95v-1.2c-1.24,1.02-2.9,1.54-4.97,1.54-1.95,0-3.42-.55-4.42-1.65-1-1.1-1.5-2.4-1.5-3.89,0-1.66.61-3.01,1.84-4.08,1.22-1.06,2.81-1.59,4.77-1.59,1.79,0,3.21.3,4.27.9v-.53c0-1.1-.06-1.86-.18-2.3-.13-.47-.43-.86-.89-1.19-.48-.32-1.03-.48-1.66-.48-1.15,0-2.04.57-2.66,1.7h-.01ZM38.41,137.86v-3.24c-.64-.44-1.32-.66-2.03-.66-.62,0-1.12.22-1.5.66-.37.45-.56,1.02-.56,1.71s.19,1.31.57,1.75c.39.47.84.7,1.35.7.9,0,1.62-.31,2.17-.94h0Z"/>
  <path class="cls-1" d="M61.19,142.39h-11.17v-5.57h1.88v-6.58h-1.88v-5.57h8.6v4.44c.32-1.11.82-2.07,1.5-2.87.65-.79,1.31-1.31,1.97-1.56.64-.23,1.57-.35,2.82-.35v7.81c-.16-.01-.36-.02-.6-.02-1.46,0-2.56.19-3.27.57-.74.39-1.25.9-1.51,1.54-.28.66-.42,1.52-.43,2.6h2.1v5.57h-.01Z"/>
  <path class="cls-1" d="M79.12,142.39h-11.17v-5.57h1.88v-6.58h-1.88v-5.57h8.6v4.44c.32-1.11.82-2.07,1.5-2.87.65-.79,1.31-1.31,1.97-1.56.64-.23,1.57-.35,2.82-.35v7.81c-.16-.01-.36-.02-.6-.02-1.46,0-2.56.19-3.27.57-.74.39-1.25.9-1.51,1.54-.28.66-.42,1.52-.43,2.6h2.1v5.57h-.01Z"/>
  <path class="cls-1" d="M96.65,136.78l5.93.94c-.27.79-.64,1.5-1.11,2.13s-1.06,1.18-1.74,1.63c-1.38.95-3.04,1.42-4.96,1.42-3.23,0-5.65-.86-7.28-2.58-1.63-1.71-2.44-3.94-2.44-6.71s.81-4.96,2.41-6.76c1.59-1.8,3.75-2.71,6.47-2.71s4.75.85,6.4,2.56c1.62,1.69,2.48,4.27,2.59,7.73h-10.91c.03,2.88.87,4.31,2.51,4.31.99,0,1.7-.66,2.15-1.97h0ZM92.08,132.13h4.04c.02-.36.03-.57.03-.62,0-.96-.19-1.76-.57-2.4-.38-.62-.89-.93-1.51-.93s-1.15.34-1.48,1.02c-.35.7-.51,1.55-.51,2.56,0,.14,0,.26.01.36h-.01Z"/>
  <path class="cls-1" d="M117.35,142.39h-11.21v-5.57h1.76v-6.58h-1.76v-5.57h1.76v-.42c0-1.85.31-3.34.93-4.46.61-1.1,1.42-1.92,2.42-2.49,1-.56,2.65-.84,4.94-.84,1.03,0,2.04.02,3.04.07v4.95c-.68-.09-1.27-.13-1.79-.13-.65,0-1.17.11-1.53.33-.37.23-.61.54-.73.93-.12.36-.18,1.04-.18,2.05h2.66v5.57h-2.66v6.58h2.34v5.59h0Z"/>
  <path class="cls-1" d="M120.66,133.43c0-2.61.86-4.81,2.57-6.6s4.03-2.69,6.94-2.69,5.32.87,7.16,2.6,2.76,3.98,2.76,6.76-.87,4.92-2.63,6.71-4.06,2.69-6.94,2.69c-3.11,0-5.52-.9-7.25-2.69-1.73-1.78-2.6-4.04-2.6-6.78h0ZM127.93,133.47c0,2.83.79,4.24,2.37,4.24,1.67,0,2.51-1.42,2.51-4.28,0-1.31-.21-2.32-.61-3.03-.42-.72-1.01-1.08-1.77-1.08s-1.36.36-1.82,1.06c-.46.7-.68,1.74-.68,3.09h0Z"/>
  <path class="cls-1" d="M144.58,130.23h-1.67v-5.57h8.86v8.44c0,1.42.1,2.38.32,2.87.2.5.62.75,1.29.75.8,0,1.54-.27,2.23-.82v-5.67h-1.9v-5.57h9.08v12.15h1.67v5.57h-8.86v-2.25c-1.9,1.71-3.83,2.58-5.81,2.58-1.42,0-2.64-.58-3.66-1.74-1.03-1.16-1.54-3.34-1.54-6.54v-4.21h-.02Z"/>
  <path class="cls-1" d="M178.42,142.39h-11.17v-5.57h1.88v-6.58h-1.88v-5.57h8.6v4.44c.32-1.11.82-2.07,1.5-2.87.65-.79,1.31-1.31,1.97-1.56.64-.23,1.57-.35,2.82-.35v7.81c-.16-.01-.36-.02-.6-.02-1.46,0-2.55.19-3.27.57-.74.39-1.25.9-1.51,1.54-.28.66-.42,1.52-.43,2.6h2.1v5.57h-.01Z"/>
</svg>