<?xml version="1.0" encoding="UTF-8"?>
<svg id="Calque_1" data-name="Calque 1" xmlns="http://www.w3.org/2000/svg" viewBox="0 0 287.85 143.28">
  <defs>
    <style>
      .cls-1 {
        fill: #010101;
        stroke-width: 0px;
      }
    </style>
  </defs>
  <polygon class="cls-1" points="90.96 40.37 0 40.37 0 143.28 90.96 143.28 90.96 117.25 32.45 117.86 33.05 100.71 90.96 100.4 90.96 79.57 33.05 80.49 32.45 65.48 90.96 64.88 90.96 40.37"/>
  <polygon class="cls-1" points="140.45 0 195.22 40.64 174.81 40.64 141.66 99.65 108.51 40.64 89.91 41.25 140.45 0"/>
  <polygon class="cls-1" points="114.41 99.65 114.41 143.28 140.28 143.28 114.41 99.65"/>
  <polygon class="cls-1" points="171 99.65 146.34 143.28 171 143.28 171 99.65"/>
  <path class="cls-1" d="M268.64,89.98s15.1-8.21,14.56-26.03c0,0-1.01-20.82-22.03-23.58l-65.94.27v102.65h60.47s29.31.3,31.94-28.9c0,0,3.63-22.27-19-24.41h0ZM226.04,81v-14.82c0-.22.17-.4.4-.4h18.41s7.53-.44,8.04,6.58c.47,6.53-3.27,8.37-3.83,8.6-.04.02-.09.03-.14.03l-22.47.4c-.22,0-.4-.18-.4-.4h0ZM250.42,116.66s-.09.03-.14.03l-22.47.4c-.22,0-.4-.18-.4-.4v-14.82c0-.22.17-.4.4-.4h18.41s7.53-.44,8.04,6.58c.47,6.53-3.27,8.37-3.83,8.6h0Z"/>
</svg>