<?xml version="1.0" encoding="UTF-8"?>
<svg id="Calque_1" data-name="Calque 1" xmlns="http://www.w3.org/2000/svg" viewBox="0 0 173.3 144.52">
  <defs>
    <style>
      .cls-1 {
        fill: #010101;
      }

      .cls-1, .cls-2 {
        stroke-width: 0px;
      }

      .cls-2 {
        fill: #fff;
      }
    </style>
  </defs>
  <rect class="cls-1" x="36.9" width="98.13" height="93.86"/>
  <ellipse class="cls-2" cx="88.96" cy="28.1" rx="19.37" ry="19.52"/>
  <path class="cls-2" d="M45,38.6v48.58h21.31v-24.29s.26-4.9,4-4.9,4.26,4.29,4.26,4.29v24.94h21.44v-24.29s1.03-5.25,5.99-4.04c0,0,1.85.78,2.32,4.04.48,3.25.26,24.29.26,24.29h21.79v-36.91s-1.42-10.67-10.16-13.36c0,0-5.08,10.32-16.96,15.83-11.88,5.55-26.87,1.78-35.74-14.53l-18.52.35h.01Z"/>
  <path class="cls-1" d="M0,133.76v-22.86c0-2.82.86-5.16,2.54-6.94,1.72-1.78,3.92-2.69,6.63-2.69,3.23,0,5.73,1.48,7.45,4.47,1.07-1.6,2.2-2.78,3.4-3.47,1.21-.69,2.71-1.04,4.48-1.04,2.84,0,4.99.91,6.5,2.69,1.5,1.78,2.28,4.38,2.28,7.77v22.03h-9.34v-20.65c0-1.04-.09-1.69-.26-2.04-.17-.35-.48-.52-.99-.52-.91,0-1.38.78-1.38,2.39v20.82h-9.34v-20.65c0-1-.09-1.69-.26-2.04-.17-.35-.52-.52-.99-.52-.91,0-1.38.82-1.38,2.51v20.65H0v.09h0Z"/>
  <path class="cls-1" d="M51.15,125.09v8.98c-.69.13-1.34.17-1.94.17-3.44,0-6.33-1.13-8.65-3.43-2.32-2.3-3.44-5.16-3.44-8.63s1.16-6.2,3.49-8.54c2.32-2.34,5.17-3.51,8.49-3.51,3.71,0,6.67,1.09,8.78,3.3,2.15,2.21,3.23,5.2,3.23,8.98v11.37h-8.61v-10.76c0-1.21-.3-2.21-.91-2.95s-1.38-1.09-2.37-1.09c-.91,0-1.68.35-2.37,1-.64.65-.99,1.48-.99,2.39s.3,1.74.91,2.39c.6.61,1.38.91,2.28.91.73,0,1.46-.17,2.11-.56h0Z"/>
  <path class="cls-1" d="M78.75,110.34v9.28c-.6-.35-1.16-.52-1.64-.52-1.55,0-2.37,1.21-2.37,3.64v10.97h-8.61v-12.67c0-3.34.91-6.03,2.71-8.03s4.22-2.99,7.28-2.99c.69.04,1.55.13,2.63.3h0Z"/>
  <path class="cls-1" d="M84.39,110.6h8.61v19.56c0,4.08-.95,7.33-2.89,9.76-2.46,3.08-5.81,4.6-10.12,4.6-1.29,0-2.8-.26-4.44-.82v-8.19c1.46.69,2.67,1.04,3.66,1.04,3.4,0,5.12-2.51,5.12-7.59v-18.35h.05ZM88.49,100.23c1.16,0,2.2.44,3.01,1.26.86.82,1.29,1.82,1.29,2.95,0,1.21-.39,2.21-1.21,2.99s-1.85,1.17-3.1,1.17-2.28-.39-3.1-1.17c-.82-.78-1.21-1.78-1.21-2.99,0-1.13.43-2.13,1.29-2.95.82-.82,1.81-1.26,3.01-1.26h.01Z"/>
  <path class="cls-1" d="M110.88,125.09v8.98c-.69.13-1.34.17-1.94.17-3.44,0-6.33-1.13-8.65-3.43-2.32-2.3-3.44-5.16-3.44-8.63s1.16-6.2,3.49-8.54c2.32-2.34,5.17-3.51,8.49-3.51,3.71,0,6.67,1.09,8.78,3.3,2.15,2.21,3.23,5.2,3.23,8.98v11.37h-8.61v-10.76c0-1.21-.3-2.21-.91-2.95s-1.38-1.09-2.37-1.09c-.91,0-1.68.35-2.37,1-.64.65-.99,1.48-.99,2.39s.3,1.74.91,2.39c.6.61,1.38.91,2.28.91.77,0,1.46-.17,2.11-.56h0Z"/>
  <path class="cls-1" d="M146.36,133.76h-8.61v-13.1c0-1.35-.56-2-1.64-2s-1.64.65-1.64,2v13.1h-8.61v-12.92c0-3.04.99-5.55,2.97-7.63,1.98-2.08,4.44-3.12,7.28-3.12,3.27,0,5.94,1.21,7.92,3.6,1.55,1.86,2.32,4.47,2.32,7.85v12.23h0Z"/>
  <path class="cls-1" d="M173.22,117.67l-11.5,6.33c-.48-.48-.86-1-1.12-1.48-.39-.69-.6-1.43-.73-2.21l3.83-2.13c-1.07-1.35-2.32-1.65-3.75-.87-.95.52-1.5,1.35-1.64,2.47-.17,1.13.13,2.34.77,3.6.73,1.3,1.59,2.21,2.58,2.73,1.03.52,1.98.48,2.93,0,.77-.44,1.29-1.21,1.55-2.34l7.15,2.86c-1.16,2.69-2.97,4.73-5.42,6.07-3.01,1.65-6.07,2.04-9.22,1.13-3.14-.91-5.51-2.86-7.15-5.85-1.59-2.99-1.94-6.07-.99-9.24s2.93-5.59,5.9-7.24c2.93-1.6,5.94-1.95,9-1.04,3.05.91,5.42,2.82,7.02,5.77.26.26.48.74.77,1.43h.01Z"/>
</svg>