<?xml version="1.0" encoding="UTF-8"?>
<svg id="Calque_1" data-name="Calque 1" xmlns="http://www.w3.org/2000/svg" viewBox="0 0 312.11 142.17">
  <defs>
    <style>
      .cls-1 {
        fill: #010101;
        stroke-width: 0px;
      }

      .cls-2 {
        fill: none;
        stroke: #010101;
        stroke-miterlimit: 10;
      }
    </style>
  </defs>
  <polygon class="cls-1" points="0 105 0 24.72 80.64 0 80.64 105 46.28 105 46.83 52.49 73.16 52.49 73.43 37.78 6.65 38.34 6.93 52.49 32.41 52.49 32.41 105 0 105"/>
  <polygon class="cls-1" points="152.41 38.34 85.63 38.34 85.63 105 152.41 105 152.41 64.72 112.51 64.72 112.51 78.61 139.66 78.33 139.94 91.1 99.76 91.67 100.03 52.49 152.41 52.49 152.41 38.34"/>
  <polygon class="cls-1" points="165.99 38.34 233.6 38.34 233.6 51.39 179.29 52.49 179.84 90.83 232.49 90.83 232.68 105 165.99 105 165.99 38.34"/>
  <polygon class="cls-1" points="245.51 38.34 245.51 105 312.09 105 312.09 91.17 259.3 91.52 259.09 51.67 312.09 51.39 312.09 38.34 245.51 38.34"/>
  <path class="cls-1" d="M11.41,141.46c-.68.34-2.03.68-3.77.68-4.02,0-7.05-2.55-7.05-7.23s3.03-7.51,7.46-7.51c1.78,0,2.91.38,3.38.64l-.44,1.5c-.7-.34-1.69-.59-2.88-.59-3.34,0-5.57,2.14-5.57,5.9,0,3.51,2.02,5.75,5.49,5.75,1.12,0,2.27-.23,3.01-.59l.37,1.46v-.02h.02Z"/>
  <path class="cls-1" d="M29.14,134.63c0,4.92-2.98,7.53-6.62,7.53s-6.41-2.93-6.41-7.25c0-4.54,2.82-7.51,6.62-7.51s6.41,2.99,6.41,7.23ZM18.07,134.86c0,3.05,1.65,5.79,4.55,5.79s4.57-2.7,4.57-5.94c0-2.84-1.48-5.81-4.55-5.81s-4.57,2.82-4.57,5.96h0Z"/>
  <path class="cls-1" d="M35.22,141.92v-14.31h2.02l4.57,7.23c1.06,1.68,1.88,3.19,2.56,4.64l.04-.02c-.17-1.91-.21-3.65-.21-5.88v-5.98h1.74v14.31h-1.86l-4.53-7.25c-.99-1.6-1.94-3.23-2.66-4.78l-.06.02c.1,1.81.15,3.53.15,5.9v6.12h-1.75Z"/>
  <path class="cls-1" d="M52.57,139.68c.83.51,2.03.93,3.3.93,1.88,0,2.98-1,2.98-2.44,0-1.33-.76-2.1-2.69-2.84-2.33-.83-3.77-2.03-3.77-4.05,0-2.23,1.84-3.88,4.61-3.88,1.46,0,2.52.34,3.16.7l-.51,1.5c-.47-.25-1.42-.68-2.7-.68-1.94,0-2.69,1.17-2.69,2.14,0,1.33.86,1.99,2.84,2.76,2.42.93,3.65,2.1,3.65,4.21s-1.63,4.12-4.99,4.12c-1.38,0-2.88-.41-3.65-.91l.47-1.54.02-.02h-.02Z"/>
  <path class="cls-1" d="M69.65,129.19h-4.34v-1.57h10.57v1.57h-4.36v12.73h-1.86v-12.73Z"/>
  <path class="cls-1" d="M81.15,127.81c.93-.19,2.27-.3,3.54-.3,1.97,0,3.24.37,4.13,1.17.72.64,1.12,1.61,1.12,2.71,0,1.89-1.19,3.14-2.69,3.65v.06c1.1.38,1.75,1.4,2.1,2.89.47,1.99.8,3.37,1.1,3.93h-1.9c-.23-.41-.55-1.64-.95-3.41-.43-1.97-1.19-2.71-2.86-2.77h-1.74v6.2h-1.84v-14.11h0v-.02ZM82.99,134.33h1.88c1.97,0,3.22-1.08,3.22-2.71,0-1.85-1.33-2.65-3.28-2.67-.89,0-1.53.09-1.82.17v5.22h0Z"/>
  <path class="cls-1" d="M98.06,127.63v8.46c0,3.2,1.42,4.56,3.32,4.56,2.12,0,3.47-1.4,3.47-4.56v-8.46h1.86v8.34c0,4.39-2.31,6.2-5.4,6.2-2.92,0-5.13-1.68-5.13-6.12v-8.42h1.88Z"/>
  <path class="cls-1" d="M115.45,127.63v14.31h-1.84v-14.31h1.84Z"/>
  <path class="cls-1" d="M122.09,139.68c.83.51,2.03.93,3.3.93,1.88,0,2.98-1,2.98-2.44,0-1.33-.76-2.1-2.69-2.84-2.33-.83-3.77-2.03-3.77-4.05,0-2.23,1.84-3.88,4.61-3.88,1.46,0,2.52.34,3.16.7l-.51,1.5c-.47-.25-1.42-.68-2.7-.68-1.94,0-2.69,1.17-2.69,2.14,0,1.33.86,1.99,2.84,2.76,2.42.93,3.65,2.1,3.65,4.21s-1.63,4.12-4.99,4.12c-1.38,0-2.88-.41-3.65-.91l.47-1.54.02-.02h-.02Z"/>
  <path class="cls-1" d="M148.66,134.63c0,4.92-2.98,7.53-6.62,7.53s-6.41-2.93-6.41-7.25c0-4.54,2.82-7.51,6.62-7.51s6.41,2.99,6.41,7.23ZM137.58,134.86c0,3.05,1.65,5.79,4.55,5.79s4.57-2.7,4.57-5.94c0-2.84-1.48-5.81-4.55-5.81s-4.57,2.82-4.57,5.96h0Z"/>
  <path class="cls-1" d="M154.73,141.92v-14.31h2.02l4.57,7.23c1.05,1.68,1.88,3.19,2.56,4.64l.04-.02c-.16-1.91-.21-3.65-.21-5.88v-5.98h1.74v14.31h-1.86l-4.53-7.25c-.99-1.6-1.95-3.23-2.66-4.78l-.06.02c.1,1.81.15,3.53.15,5.9v6.12h-1.74,0,0Z"/>
  <path class="cls-1" d="M172.09,139.68c.83.51,2.03.93,3.3.93,1.88,0,2.98-1,2.98-2.44,0-1.33-.76-2.1-2.69-2.84-2.33-.83-3.77-2.03-3.77-4.05,0-2.23,1.84-3.88,4.61-3.88,1.46,0,2.52.34,3.16.7l-.51,1.5c-.47-.25-1.42-.68-2.7-.68-1.94,0-2.69,1.17-2.69,2.14,0,1.33.86,1.99,2.84,2.76,2.42.93,3.65,2.1,3.65,4.21s-1.63,4.12-4.99,4.12c-1.38,0-2.88-.41-3.65-.91l.47-1.54.02-.02h-.02Z"/>
  <path class="cls-1" d="M202.02,135.22h-5.55v5.16h6.19v1.54h-8.03v-14.31h7.71v1.54h-5.86v4.52h5.55v1.54Z"/>
  <path class="cls-1" d="M208.72,141.92v-14.31h2.02l4.57,7.23c1.05,1.68,1.88,3.19,2.56,4.64l.04-.02c-.16-1.91-.21-3.65-.21-5.88v-5.98h1.74v14.31h-1.86l-4.53-7.25c-.99-1.6-1.94-3.23-2.66-4.78l-.06.02c.1,1.81.15,3.53.15,5.9v6.12h-1.74,0,0Z"/>
  <path class="cls-1" d="M226.08,139.68c.83.51,2.03.93,3.3.93,1.88,0,2.98-1,2.98-2.44,0-1.33-.76-2.1-2.69-2.84-2.33-.83-3.77-2.03-3.77-4.05,0-2.23,1.84-3.88,4.61-3.88,1.46,0,2.52.34,3.16.7l-.51,1.5c-.47-.25-1.42-.68-2.7-.68-1.94,0-2.69,1.17-2.69,2.14,0,1.33.86,1.99,2.84,2.76,2.42.93,3.65,2.1,3.65,4.21s-1.63,4.12-4.99,4.12c-1.38,0-2.88-.41-3.65-.91l.47-1.54.02-.02h-.02Z"/>
  <path class="cls-1" d="M247.85,135.22h-5.55v5.16h6.19v1.54h-8.03v-14.31h7.71v1.54h-5.87v4.52h5.55v1.53h0v.02Z"/>
  <path class="cls-1" d="M266.58,135.64c-.1-1.99-.23-4.39-.21-6.18h-.06c-.49,1.68-1.08,3.45-1.8,5.44l-2.52,6.94h-1.4l-2.31-6.82c-.68-2.02-1.25-3.86-1.65-5.56h-.04c-.04,1.78-.15,4.18-.27,6.33l-.37,6.13h-1.75l.99-14.31h2.35l2.43,6.92c.59,1.76,1.08,3.33,1.44,4.82h.06c.36-1.44.86-3.02,1.5-4.82l2.54-6.92h2.35l.89,14.31h-1.8l-.36-6.28h-.02Z"/>
  <path class="cls-1" d="M275.25,127.81c.8-.16,2.08-.3,3.37-.3,1.84,0,3.03.31,3.92,1.04.74.55,1.19,1.4,1.19,2.52,0,1.38-.91,2.59-2.42,3.14v.04c1.36.34,2.95,1.46,2.95,3.59,0,1.23-.49,2.16-1.21,2.87-.99.91-2.6,1.33-4.93,1.33-1.27,0-2.24-.09-2.86-.16v-14.07h0ZM277.09,133.66h1.67c1.95,0,3.09-1.02,3.09-2.4,0-1.68-1.27-2.34-3.13-2.34-.85,0-1.33.06-1.63.12v4.61h0ZM277.09,140.52c.36.06.89.09,1.54.09,1.9,0,3.66-.7,3.66-2.77,0-1.95-1.68-2.76-3.69-2.76h-1.53v5.45h0,0Z"/>
  <path class="cls-1" d="M290.41,127.63h1.84v12.76h6.1v1.54h-7.94v-14.31h0Z"/>
  <path class="cls-1" d="M311.47,135.22h-5.55v5.16h6.19v1.54h-8.03v-14.31h7.71v1.54h-5.87v4.52h5.55v1.53h0v.02Z"/>
  <line class="cls-2" x1=".59" y1="116.12" x2="312.09" y2="117.34"/>
</svg>