<?xml version="1.0" encoding="UTF-8"?>
<svg id="Calque_1" data-name="Calque 1" xmlns="http://www.w3.org/2000/svg" viewBox="0 0 393.24 318.04">
  <defs>
    <style>
      .cls-1 {
        stroke-width: 0px;
      }
    </style>
  </defs>
  <path class="cls-1" d="M113.18,8.46L0,115.59l110.3,110.02s-30.64-37.37-28.2-117.43c.52-17.14,3.41-34.12,8.45-50.51,5.42-17.64,13.69-40.28,22.63-49.22Z"/>
  <path class="cls-1" d="M254.02,37.35S230.51-12.67,187.41,3.06c-15.44,5.64-27.52,17.95-33.44,33.29-9.73,25.25-24.24,75.9-13.23,133.87,0,0,5.57,72.38,65.47,67.2,0,0,29.38-1.54,43.97-33.79,0,0-26.88,2.3-33.41-22.66s14.59-41.47,14.59-41.47c0,0,33.7-22.39,55.68,15.74,1.9,3.29,2.93,9.41,3.5,15.55,1.02,11.05.19,22.19-2.24,33.03-2.21,9.81-6.86,21.63-10.66,25.25l115.61-108.77L283.97,15.08s16.42,22.11,9.51,62.58c-1.07,6.25-4.47,11.91-9.56,15.7-10.83,8.07-31.87,18.46-55.63,2.36-34.56-23.42,2.3-71.04,25.73-58.37Z"/>
  <path class="cls-1" d="M40.22,291.96l10.94,5.17c-.93,6.05-3.06,11-6.4,14.85-3.38,3.88-8.02,5.82-13.94,5.82-8.08,0-14.06-2.83-17.94-8.5-3.9-5.64-5.85-12.53-5.85-20.67s1.91-15.15,5.73-20.87c3.82-5.72,8.78-8.58,14.88-8.58,4.95,0,8.98,1.64,12.09,4.92v-3.78h10.12v20.67h-10.52c-.55-2.58-1.47-4.61-2.76-6.1-1.29-1.46-2.77-2.2-4.43-2.2-4.57,0-6.85,5.28-6.85,15.83s2.36,15.87,7.09,15.87c4.14,0,6.75-4.14,7.82-12.41Z"/>
  <path class="cls-1" d="M70.09,288.47l-11.94-1.63c1.31-3.88,3.44-6.6,6.37-8.18,2.89-1.57,7.15-2.36,12.79-2.36,2.08,0,3.95.09,5.59.26,1.65.18,3.12.44,4.41.79,2.69.68,4.68,1.72,5.97,3.13,1.29,1.44,2.19,2.98,2.7,4.64.52,1.71.79,4.37.79,7.97v11.39h3.76v12.41h-19v-2.68c-2.63,2.28-6.14,3.42-10.55,3.42-4.14,0-7.26-1.22-9.37-3.66-2.12-2.44-3.18-5.33-3.18-8.67,0-3.69,1.3-6.71,3.91-9.07,2.59-2.36,5.96-3.54,10.12-3.54,3.8,0,6.82.67,9.06,1.99v-1.18c0-2.44-.13-4.15-.39-5.12-.28-1.03-.91-1.91-1.88-2.64-1.01-.71-2.18-1.06-3.52-1.06-2.45,0-4.32,1.26-5.64,3.78ZM81.52,306.81v-7.2c-1.35-.98-2.79-1.46-4.3-1.46-1.33,0-2.39.49-3.18,1.46-.79,1-1.18,2.28-1.18,3.82s.4,2.9,1.21,3.91c.83,1.03,1.78,1.55,2.85,1.55,1.9,0,3.44-.69,4.61-2.08Z"/>
  <path class="cls-1" d="M129.88,316.9h-23.7v-12.41h4v-14.65h-4v-12.41h18.25v9.88c.69-2.47,1.75-4.6,3.18-6.39,1.37-1.76,2.77-2.92,4.18-3.46,1.35-.52,3.34-.77,5.97-.77v17.37c-.34-.03-.77-.04-1.27-.04-3.11,0-5.43.42-6.94,1.26-1.58.87-2.65,2.01-3.21,3.42-.59,1.46-.89,3.39-.91,5.78h4.46v12.41Z"/>
  <path class="cls-1" d="M167.93,316.9h-23.7v-12.41h4v-14.65h-4v-12.41h18.25v9.88c.69-2.47,1.75-4.6,3.18-6.39,1.37-1.76,2.77-2.92,4.18-3.46,1.35-.52,3.34-.77,5.97-.77v17.37c-.34-.03-.77-.04-1.27-.04-3.11,0-5.43.42-6.94,1.26-1.58.87-2.65,2.01-3.21,3.42-.59,1.46-.89,3.39-.91,5.78h4.46v12.41Z"/>
  <path class="cls-1" d="M205.14,304.41l12.58,2.08c-.57,1.76-1.35,3.34-2.36,4.74-1.01,1.4-2.24,2.61-3.7,3.64-2.93,2.12-6.44,3.17-10.52,3.17-6.85,0-12-1.91-15.46-5.74-3.46-3.8-5.18-8.77-5.18-14.93s1.71-11.04,5.12-15.05c3.37-4.01,7.95-6.02,13.73-6.02s10.08,1.9,13.58,5.7c3.43,3.77,5.26,9.51,5.49,17.21h-23.16c.06,6.4,1.84,9.6,5.33,9.6,2.1,0,3.62-1.46,4.55-4.39ZM195.44,294.08h8.58c.04-.81.06-1.28.06-1.38,0-2.14-.4-3.92-1.21-5.33-.81-1.38-1.88-2.07-3.21-2.07s-2.43.76-3.15,2.28c-.73,1.55-1.09,3.45-1.09,5.7,0,.3,0,.57.03.81Z"/>
  <path class="cls-1" d="M249.07,316.9h-23.79v-12.41h3.73v-14.65h-3.73v-12.41h3.73v-.94c0-4.12.66-7.43,1.97-9.93,1.29-2.44,3.01-4.28,5.15-5.53,2.12-1.25,5.62-1.87,10.49-1.87,2.18,0,4.33.05,6.46.16v11.02c-1.43-.19-2.7-.29-3.79-.29-1.39,0-2.48.24-3.24.73-.79.52-1.3,1.21-1.55,2.07-.26.81-.39,2.33-.39,4.56h5.64v12.41h-5.64v14.65h4.97v12.41Z"/>
  <path class="cls-1" d="M256.09,296.97c0-5.8,1.82-10.7,5.46-14.69,3.64-3.99,8.55-5.98,14.73-5.98s11.29,1.93,15.19,5.78c3.9,3.85,5.85,8.87,5.85,15.05s-1.86,10.94-5.58,14.93c-3.72,3.99-8.63,5.98-14.73,5.98-6.59,0-11.72-1.99-15.4-5.98-3.68-3.96-5.52-8.99-5.52-15.09ZM271.52,297.05c0,6.29,1.68,9.44,5.03,9.44,3.56,0,5.33-3.17,5.33-9.52,0-2.9-.44-5.15-1.3-6.75-.89-1.6-2.14-2.4-3.76-2.4s-2.88.79-3.85,2.36c-.97,1.57-1.45,3.87-1.45,6.88Z"/>
  <path class="cls-1" d="M306.87,289.85h-3.55v-12.41h18.79v18.79c0,3.17.22,5.3.67,6.39.42,1.11,1.33,1.67,2.73,1.67,1.7,0,3.27-.61,4.73-1.83v-12.61h-4.03v-12.41h19.28v27.05h3.55v12.41h-18.79v-5c-4.02,3.82-8.13,5.74-12.34,5.74-3.01,0-5.6-1.29-7.76-3.87-2.18-2.58-3.27-7.43-3.27-14.56v-9.36Z"/>
  <path class="cls-1" d="M378.69,316.9h-23.7v-12.41h4v-14.65h-4v-12.41h18.25v9.88c.69-2.47,1.75-4.6,3.18-6.39,1.37-1.76,2.77-2.92,4.18-3.46,1.35-.52,3.34-.77,5.97-.77v17.37c-.34-.03-.77-.04-1.27-.04-3.11,0-5.42.42-6.94,1.26-1.58.87-2.65,2.01-3.21,3.42-.59,1.46-.89,3.39-.91,5.78h4.46v12.41Z"/>
</svg>