<?xml version="1.0" encoding="UTF-8"?>
<svg id="Calque_1" data-name="Calque 1" xmlns="http://www.w3.org/2000/svg" viewBox="0 0 391.96 193.14">
  <defs>
    <style>
      .cls-1 {
        stroke-width: 0px;
      }
    </style>
  </defs>
  <polygon class="cls-1" points="123.86 54.42 0 54.42 0 193.14 123.86 193.14 123.86 158.05 44.18 158.87 45 135.75 123.86 135.34 123.86 107.26 45 108.5 44.18 88.27 123.86 87.45 123.86 54.42"/>
  <polygon class="cls-1" points="191.24 0 265.83 54.77 238.03 54.77 192.89 134.32 147.75 54.77 122.43 55.6 191.24 0"/>
  <polygon class="cls-1" points="155.79 134.32 155.79 193.14 191.02 193.14 155.79 134.32"/>
  <polygon class="cls-1" points="232.85 134.32 199.27 193.14 232.85 193.14 232.85 134.32"/>
  <path class="cls-1" d="M365.8,121.29s20.57-11.07,19.82-35.08c0,0-1.38-28.07-30-31.79l-89.79.36v138.37h82.35s39.91.41,43.49-38.95c0,0,4.95-30.02-25.87-32.9ZM307.79,109.19v-19.97c0-.3.24-.54.54-.54h25.06s10.25-.59,10.94,8.88c.64,8.8-4.46,11.28-5.21,11.59-.06.03-.12.04-.19.04l-30.59.54c-.3,0-.55-.24-.55-.54ZM340.98,157.25c-.06.03-.12.04-.19.04l-30.59.54c-.3,0-.55-.24-.55-.54v-19.97c0-.3.24-.54.54-.54h25.06s10.25-.59,10.94,8.88c.64,8.8-4.46,11.28-5.21,11.59Z"/>
</svg>