<?xml version="1.0" encoding="UTF-8"?>
<svg id="Calque_1" data-name="Calque 1" xmlns="http://www.w3.org/2000/svg" xmlns:xlink="http://www.w3.org/1999/xlink" viewBox="0 0 413.28 266.35">
  <defs>
    <style>
      .cls-1 {
        fill: #fff;
        stroke-width: 0px;
      }
    </style>
    <symbol id="Nouveau_symbole" data-name="Nouveau symbole" viewBox="0 0 413.02 44.49">
      <g>
        <path class="cls-1" d="M19.77,3.27c-2.65-1.66-6.19-2.48-10.62-2.48H0v42.91h9.65c4.65,0,8.23-1.01,10.74-3.02,2.51-2.01,4.38-4.66,5.6-7.94,1.22-3.28,1.83-7.02,1.83-11.21s-.68-7.61-2.04-10.88-3.37-5.73-6.02-7.39ZM18.06,33.72c-1.77,2.86-4.61,4.29-8.53,4.29h-2.8V6.48h2.8c7.46,0,11.18,5.26,11.18,15.78,0,4.78-.88,8.6-2.65,11.46Z"/>
        <path class="cls-1" d="M46.88,0c-4.76,0-8.39,1.88-10.89,5.64-2.5,3.76-3.75,9.29-3.75,16.58s1.26,12.91,3.78,16.65c2.52,3.74,6.15,5.61,10.89,5.61s8.32-1.88,10.8-5.63c2.48-3.75,3.72-9.29,3.72-16.63s-1.25-12.87-3.75-16.62c-2.5-3.74-6.1-5.61-10.8-5.61ZM52.69,34.34c-1.13,2.88-3.06,4.33-5.77,4.33-2.9,0-4.89-1.49-5.98-4.47-1.09-2.98-1.64-6.97-1.64-11.96s.56-9.08,1.67-12.02c1.11-2.94,3.06-4.41,5.86-4.41s4.76,1.46,5.88,4.39c1.12,2.93,1.68,6.94,1.68,12.04s-.57,9.22-1.7,12.1Z"/>
        <path class="cls-1" d="M86.86,27.29c0,3.69-.2,6.16-.6,7.4-.4,1.25-1.07,2.21-2.02,2.89-.95.68-2.28,1.02-3.99,1.02-1.81,0-3.24-.41-4.3-1.24-1.06-.83-1.74-1.95-2.04-3.36-.3-1.41-.45-3.61-.45-6.59V.79h-6.58v26.63c0,5.34.51,9.06,1.52,11.14,1.01,2.09,2.5,3.59,4.48,4.53,1.97.93,4.3,1.4,6.98,1.4,3.45,0,6.2-.74,8.26-2.23s3.36-3.36,3.93-5.63c.57-2.26.85-5.49.85-9.68V.79h-6.04v26.5Z"/>
        <polygon class="cls-1" points="125.83 .79 118.71 .79 106.46 21.25 106.46 .79 99.73 .79 99.73 43.7 106.46 43.7 106.46 29.62 111.24 22.39 120.33 43.7 127.61 43.7 115.35 16.54 125.83 .79"/>
        <polygon class="cls-1" points="156.31 .79 149.2 .79 136.94 21.25 136.94 .79 130.22 .79 130.22 43.7 136.94 43.7 136.94 29.62 141.72 22.39 150.81 43.7 158.1 43.7 145.84 16.54 156.31 .79"/>
        <path class="cls-1" d="M171.74.79l-11.76,42.91h6.41l2.52-10.75h11.91l2.55,10.75h6.81L179.28.79h-7.54ZM170.23,27.35l4.61-19.65,4.66,19.65h-9.27Z"/>
        <polygon class="cls-1" points="200.41 .79 193.68 .79 193.68 43.7 214.78 43.7 214.78 37.7 200.41 37.7 200.41 .79"/>
        <path class="cls-1" d="M228.35.79l-11.76,42.91h6.41l2.52-10.75h11.91l2.55,10.75h6.81L235.89.79h-7.54ZM226.84,27.35l4.61-19.65,4.66,19.65h-9.27Z"/>
        <polygon class="cls-1" points="281.6 31.72 273.49 .79 263.52 .79 263.52 43.7 269.14 43.7 269.14 7.04 278.62 43.7 283.5 43.7 293.16 7.07 293.16 43.7 299.47 43.7 299.47 .79 289.91 .79 281.6 31.72"/>
        <polygon class="cls-1" points="313.32 24.46 326.29 24.46 326.29 18.74 313.32 18.74 313.32 6.48 329.86 6.48 329.86 .79 306.59 .79 306.59 43.7 330.13 43.7 330.13 37.88 313.32 37.88 313.32 24.46"/>
        <polygon class="cls-1" points="356.82 .79 332 .79 332 6.82 341.02 6.82 341.02 43.7 347.74 43.7 347.74 6.82 356.82 6.82 356.82 .79"/>
        <path class="cls-1" d="M368.21.79l-11.76,42.91h6.41l2.52-10.75h11.91l2.55,10.75h6.81L375.75.79h-7.54ZM366.7,27.35l4.61-19.65,4.66,19.65h-9.27Z"/>
        <polygon class="cls-1" points="398.65 37.7 398.65 .79 391.92 .79 391.92 43.7 413.02 43.7 413.02 37.7 398.65 37.7"/>
      </g>
    </symbol>
  </defs>
  <polygon class="cls-1" points="136.53 0 11.53 184.32 58.77 184.32 136.53 68.54 148.05 84.67 79.79 184.32 129.04 184.32 171.66 118.66 215.44 184.32 261.52 184.32 194.13 85.25 205.93 68.54 285.71 184.32 330.64 184.32 205.93 0 171.09 52.99 136.53 0"/>
  <polygon class="cls-1" points="229.84 2.3 277.65 2.3 400.91 184.32 354.25 184.32 229.84 2.3"/>
  <use width="413.02" height="44.49" transform="translate(0 194.55)" xlink:href="#Nouveau_symbole"/>
  <path class="cls-1" d="M.25,248.06h2.5l3.08,14.97,3.08-14.97h2.5l-4.18,18.1h-2.8L.25,248.06Z"/>
  <path class="cls-1" d="M15.1,265.81c-.77-.36-1.36-.88-1.76-1.56-.41-.68-.61-1.5-.61-2.46v-9.36c0-.96.2-1.79.61-2.47.4-.68.99-1.2,1.76-1.56.77-.35,1.7-.53,2.78-.53s2.01.18,2.78.53,1.36.87,1.76,1.56c.4.68.61,1.51.61,2.47v9.36c0,.96-.2,1.78-.61,2.46-.4.68-.99,1.2-1.76,1.56s-1.7.54-2.78.54-2.01-.18-2.78-.54ZM19.37,264.03c.41-.19.73-.47.95-.83s.33-.8.33-1.32v-9.53c0-.51-.11-.95-.33-1.32s-.54-.64-.95-.83c-.41-.19-.91-.29-1.49-.29s-1.08.1-1.49.29c-.41.19-.73.47-.95.83s-.33.81-.33,1.32v9.53c0,.51.11.95.33,1.32s.54.64.95.83c.41.19.91.29,1.49.29s1.08-.1,1.49-.29Z"/>
  <path class="cls-1" d="M24.49,248.06h10.08v1.95h-10.08v-1.95ZM28.33,249.55h2.4v16.62h-2.4v-16.62Z"/>
  <path class="cls-1" d="M37.59,248.05h2.38v18.11h-2.38v-18.11ZM38.86,256.55h3.84c.55,0,1.02-.09,1.41-.27.39-.18.69-.44.9-.78.21-.34.31-.75.31-1.23v-1.87c0-.5-.1-.93-.31-1.29-.2-.37-.5-.64-.9-.83-.4-.19-.87-.28-1.42-.28h-3.84v-1.95h3.64c1.09,0,2.03.16,2.81.48.78.32,1.38.79,1.78,1.41.41.62.61,1.36.61,2.22v2.12c0,.89-.2,1.65-.61,2.28-.41.64-1,1.12-1.78,1.45-.79.33-1.73.5-2.82.5h-3.64v-1.95ZM42.79,257.95l2.2-.57,3.31,8.79h-2.68l-2.83-8.21Z"/>
  <path class="cls-1" d="M50.82,248.06h2.38v18.1h-2.38v-18.1ZM52.23,248.06h7.5v1.95h-7.5v-1.95ZM52.23,256.19h6.78v1.97h-6.78v-1.97ZM52.23,264.21h7.5v1.95h-7.5v-1.95Z"/>
  <path class="cls-1" d="M67.8,248.06h2.38v18.1h-2.38v-18.1ZM69.3,257.19h4.18c.4,0,.74-.08,1.03-.24s.5-.38.65-.68.22-.65.22-1.06v-3.15c0-.43-.07-.8-.22-1.11-.15-.31-.36-.54-.65-.7s-.63-.24-1.03-.24h-4.18v-1.95h4.1c.93,0,1.73.16,2.38.47.66.31,1.16.76,1.5,1.36.34.59.51,1.31.51,2.15v3.22c0,.81-.17,1.51-.52,2.09-.35.58-.85,1.02-1.51,1.33-.66.31-1.45.46-2.37.46h-4.1v-1.95Z"/>
  <path class="cls-1" d="M83.11,248.06h2.48l4.8,18.1h-2.6l-3.44-15.25-3.44,15.25h-2.6l4.8-18.1ZM81.19,260.04h6.61v1.95h-6.61v-1.95Z"/>
  <path class="cls-1" d="M93.27,248.05h2.38v18.11h-2.38v-18.11ZM94.54,256.55h3.84c.55,0,1.02-.09,1.41-.27.39-.18.69-.44.9-.78.21-.34.31-.75.31-1.23v-1.87c0-.5-.1-.93-.31-1.29-.2-.37-.5-.64-.9-.83-.4-.19-.87-.28-1.42-.28h-3.84v-1.95h3.64c1.09,0,2.03.16,2.81.48.78.32,1.38.79,1.78,1.41.41.62.61,1.36.61,2.22v2.12c0,.89-.2,1.65-.61,2.28-.41.64-1,1.12-1.78,1.45-.79.33-1.73.5-2.82.5h-3.64v-1.95ZM98.47,257.95l2.2-.57,3.31,8.79h-2.68l-2.83-8.21Z"/>
  <path class="cls-1" d="M104.08,248.06h10.08v1.95h-10.08v-1.95ZM107.92,249.55h2.4v16.62h-2.4v-16.62Z"/>
  <path class="cls-1" d="M115.18,248.06h2.38v18.1h-2.38v-18.1ZM116.59,248.06h7.5v1.95h-7.5v-1.95ZM116.59,256.19h6.78v1.97h-6.78v-1.97ZM116.59,264.21h7.5v1.95h-7.5v-1.95Z"/>
  <path class="cls-1" d="M126.25,248.06h2.16l6.12,14.36-.4.32v-14.69h2.31v18.08h-2.18l-6.1-14.15.4-.32v14.47h-2.31v-18.08Z"/>
  <path class="cls-1" d="M144.84,248.06h2.48l4.8,18.1h-2.6l-3.44-15.25-3.44,15.25h-2.6l4.8-18.1ZM142.91,260.04h6.61v1.95h-6.61v-1.95Z"/>
  <path class="cls-1" d="M157.53,266.16h-2.4v-18.1h2.4v18.1Z"/>
  <path class="cls-1" d="M161.53,248.05h2.38v18.11h-2.38v-18.11ZM162.8,256.55h3.84c.55,0,1.02-.09,1.41-.27.39-.18.69-.44.9-.78.21-.34.31-.75.31-1.23v-1.87c0-.5-.1-.93-.31-1.29-.2-.37-.5-.64-.9-.83-.4-.19-.87-.28-1.42-.28h-3.84v-1.95h3.64c1.09,0,2.03.16,2.81.48.78.32,1.38.79,1.78,1.41.41.62.61,1.36.61,2.22v2.12c0,.89-.2,1.65-.61,2.28-.41.64-1,1.12-1.78,1.45-.79.33-1.73.5-2.82.5h-3.64v-1.95ZM166.73,257.95l2.2-.57,3.31,8.79h-2.68l-2.83-8.21Z"/>
  <path class="cls-1" d="M175.76,248.06h2.38v18.1h-2.38v-18.1ZM177.18,248.06h7.5v1.95h-7.5v-1.95ZM177.18,256.19h6.78v1.97h-6.78v-1.97ZM177.18,264.21h7.5v1.95h-7.5v-1.95Z"/>
  <path class="cls-1" d="M194.74,248.06h2.38v18.1h-2.38v-18.1ZM196.16,248.06h7.5v1.95h-7.5v-1.95ZM196.16,256.19h6.78v1.97h-6.78v-1.97ZM196.16,264.21h7.5v1.95h-7.5v-1.95Z"/>
  <path class="cls-1" d="M206.82,248.06h2.16l6.12,14.36-.4.32v-14.69h2.31v18.08h-2.18l-6.1-14.15.4-.32v14.47h-2.31v-18.08Z"/>
  <path class="cls-1" d="M229.92,265.87c-.75-.32-1.31-.79-1.69-1.42-.38-.63-.57-1.41-.57-2.34v-.9h2.37s0,.85,0,.85c0,.76.23,1.34.68,1.73.45.39,1.12.59,2.01.59s1.52-.19,1.96-.58.66-.96.66-1.74v-1.32c0-.51-.14-.95-.41-1.31-.27-.36-.62-.66-1.04-.9-.42-.24-.97-.5-1.66-.78-.03,0-.05-.02-.07-.02-.02,0-.04-.02-.06-.03l-.19-.07c-.91-.38-1.65-.74-2.22-1.07s-1.05-.79-1.44-1.36-.58-1.3-.58-2.16v-.97c0-.91.19-1.68.56-2.3s.94-1.09,1.69-1.41c.75-.31,1.67-.47,2.78-.47s1.96.16,2.68.48,1.27.79,1.64,1.42c.37.63.56,1.41.56,2.33v.95h-2.36v-.9c0-.75-.22-1.33-.64-1.72-.42-.39-1.05-.58-1.89-.58s-1.54.18-1.98.55c-.45.37-.67.91-.67,1.63v1.01c0,.51.14.95.42,1.29.28.35.63.64,1.04.86.41.22.99.48,1.72.77.08.03.14.06.21.09s.13.06.19.08c.05.02.09.03.14.05.04.02.08.03.12.05.8.33,1.46.66,1.99.99.52.33.96.77,1.31,1.34.35.56.52,1.27.52,2.13v1.41c0,.93-.19,1.71-.56,2.34-.38.63-.93,1.11-1.67,1.42-.74.32-1.65.48-2.75.48s-2.04-.16-2.79-.48Z"/>
  <path class="cls-1" d="M240,248.06h10.08v1.95h-10.08v-1.95ZM243.84,249.55h2.4v16.62h-2.4v-16.62Z"/>
  <path class="cls-1" d="M254.1,248.05h2.38v18.11h-2.38v-18.11ZM255.37,256.55h3.84c.55,0,1.02-.09,1.41-.27.39-.18.69-.44.9-.78.21-.34.31-.75.31-1.23v-1.87c0-.5-.1-.93-.31-1.29-.2-.37-.51-.64-.9-.83-.39-.19-.87-.28-1.42-.28h-3.84v-1.95h3.64c1.09,0,2.03.16,2.81.48.78.32,1.38.79,1.78,1.41.41.62.61,1.36.61,2.22v2.12c0,.89-.2,1.65-.61,2.28-.41.64-1,1.12-1.79,1.45-.78.33-1.72.5-2.82.5h-3.64v-1.95ZM259.3,257.95l2.2-.57,3.31,8.79h-2.68l-2.83-8.21Z"/>
  <path class="cls-1" d="M268.73,265.87c-.71-.32-1.23-.79-1.59-1.42-.35-.63-.53-1.42-.53-2.35v-14.03h2.38v14.13c0,.7.2,1.23.59,1.59s.97.54,1.73.54,1.37-.18,1.76-.54c.39-.36.59-.89.59-1.59v-14.13h2.38v14.03c0,.94-.18,1.72-.54,2.35-.36.63-.89,1.11-1.59,1.42s-1.58.48-2.61.48-1.89-.16-2.6-.48Z"/>
  <path class="cls-1" d="M282.46,265.8c-.72-.36-1.28-.89-1.66-1.59-.38-.69-.57-1.52-.57-2.5v-9.2c0-.98.19-1.82.57-2.51s.93-1.22,1.65-1.59,1.59-.55,2.61-.55,1.89.18,2.61.55,1.27.89,1.65,1.59.56,1.52.56,2.5v.72h-2.4v-.72c0-.55-.1-1.02-.29-1.41s-.47-.69-.83-.9c-.36-.2-.8-.3-1.31-.3s-.95.1-1.31.3c-.36.2-.64.5-.83.9s-.29.87-.29,1.42v9.2c0,.55.1,1.02.29,1.41.19.39.47.69.83.9.36.2.8.3,1.31.3s.96-.1,1.32-.3c.36-.2.63-.5.82-.89.19-.39.29-.86.29-1.42v-.72h2.4v.72c0,.97-.19,1.8-.56,2.5-.38.69-.93,1.22-1.65,1.59-.72.37-1.59.55-2.61.55s-1.88-.18-2.6-.55Z"/>
  <path class="cls-1" d="M291.05,248.06h10.08v1.95h-10.08v-1.95ZM294.89,249.55h2.4v16.62h-2.4v-16.62Z"/>
  <path class="cls-1" d="M303.55,265.87c-.71-.32-1.23-.79-1.59-1.42-.35-.63-.53-1.42-.53-2.35v-14.03h2.38v14.13c0,.7.2,1.23.59,1.59s.97.54,1.73.54,1.37-.18,1.76-.54c.39-.36.59-.89.59-1.59v-14.13h2.38v14.03c0,.94-.18,1.72-.54,2.35-.36.63-.89,1.11-1.59,1.42s-1.58.48-2.61.48-1.89-.16-2.6-.48Z"/>
  <path class="cls-1" d="M314.34,248.05h2.38v18.11h-2.38v-18.11ZM315.61,256.55h3.84c.55,0,1.02-.09,1.41-.27.39-.18.69-.44.9-.78.21-.34.31-.75.31-1.23v-1.87c0-.5-.1-.93-.31-1.29-.2-.37-.51-.64-.9-.83-.39-.19-.87-.28-1.42-.28h-3.84v-1.95h3.64c1.09,0,2.03.16,2.81.48.78.32,1.38.79,1.78,1.41.41.62.61,1.36.61,2.22v2.12c0,.89-.2,1.65-.61,2.28-.41.64-1,1.12-1.79,1.45-.78.33-1.72.5-2.82.5h-3.64v-1.95ZM319.54,257.95l2.2-.57,3.31,8.79h-2.68l-2.83-8.21Z"/>
  <path class="cls-1" d="M328.57,248.06h2.38v18.1h-2.38v-18.1ZM329.98,248.06h7.5v1.95h-7.5v-1.95ZM329.98,256.19h6.78v1.97h-6.78v-1.97ZM329.98,264.21h7.5v1.95h-7.5v-1.95Z"/>
  <path class="cls-1" d="M342.77,265.87c-.75-.32-1.31-.79-1.69-1.42-.38-.63-.57-1.41-.57-2.34v-.9h2.37s0,.85,0,.85c0,.76.23,1.34.68,1.73.45.39,1.12.59,2.01.59s1.52-.19,1.96-.58.66-.96.66-1.74v-1.32c0-.51-.14-.95-.41-1.31-.27-.36-.62-.66-1.04-.9-.42-.24-.97-.5-1.66-.78-.03,0-.05-.02-.07-.02-.02,0-.04-.02-.06-.03l-.19-.07c-.91-.38-1.65-.74-2.22-1.07s-1.05-.79-1.44-1.36-.58-1.3-.58-2.16v-.97c0-.91.19-1.68.56-2.3s.94-1.09,1.69-1.41c.75-.31,1.67-.47,2.78-.47s1.96.16,2.68.48,1.27.79,1.64,1.42c.37.63.56,1.41.56,2.33v.95h-2.36v-.9c0-.75-.22-1.33-.64-1.72-.42-.39-1.05-.58-1.89-.58s-1.54.18-1.98.55c-.45.37-.67.91-.67,1.63v1.01c0,.51.14.95.42,1.29.28.35.63.64,1.04.86.41.22.99.48,1.72.77.08.03.14.06.21.09s.13.06.19.08c.05.02.09.03.14.05.04.02.08.03.12.05.8.33,1.46.66,1.99.99.52.33.96.77,1.31,1.34.35.56.52,1.27.52,2.13v1.41c0,.93-.19,1.71-.56,2.34-.38.63-.93,1.11-1.67,1.42-.74.32-1.65.48-2.75.48s-2.04-.16-2.79-.48Z"/>
  <path class="cls-1" d="M362.98,248.06h2.48l4.8,18.1h-2.6l-3.44-15.25-3.44,15.25h-2.6l4.8-18.1ZM361.05,260.04h6.61v1.95h-6.61v-1.95Z"/>
  <path class="cls-1" d="M374.23,265.8c-.72-.36-1.28-.89-1.66-1.59-.38-.69-.57-1.52-.57-2.5v-9.2c0-.98.19-1.82.57-2.51s.93-1.22,1.65-1.59,1.59-.55,2.61-.55,1.89.18,2.61.55,1.27.89,1.65,1.59.56,1.52.56,2.5v.72h-2.4v-.72c0-.55-.1-1.02-.29-1.41s-.47-.69-.83-.9c-.36-.2-.8-.3-1.31-.3s-.95.1-1.31.3c-.36.2-.64.5-.83.9s-.29.87-.29,1.42v9.2c0,.55.1,1.02.29,1.41.19.39.47.69.83.9.36.2.8.3,1.31.3s.96-.1,1.32-.3c.36-.2.63-.5.82-.89.19-.39.29-.86.29-1.42v-.72h2.4v.72c0,.97-.19,1.8-.56,2.5-.38.69-.93,1.22-1.65,1.59-.72.37-1.59.55-2.61.55s-1.88-.18-2.6-.55Z"/>
  <path class="cls-1" d="M387.49,266.16h-2.4v-18.1h2.4v18.1Z"/>
  <path class="cls-1" d="M391.49,248.06h2.38v18.1h-2.38v-18.1ZM392.91,248.06h7.5v1.95h-7.5v-1.95ZM392.91,256.19h6.78v1.97h-6.78v-1.97ZM392.91,264.21h7.5v1.95h-7.5v-1.95Z"/>
  <path class="cls-1" d="M402.57,248.05h2.38v18.11h-2.38v-18.11ZM403.84,256.55h3.84c.55,0,1.02-.09,1.41-.27.39-.18.69-.44.9-.78.21-.34.31-.75.31-1.23v-1.87c0-.5-.1-.93-.31-1.29-.2-.37-.51-.64-.9-.83-.39-.19-.87-.28-1.42-.28h-3.84v-1.95h3.64c1.09,0,2.03.16,2.81.48.78.32,1.38.79,1.78,1.41.41.62.61,1.36.61,2.22v2.12c0,.89-.2,1.65-.61,2.28-.41.64-1,1.12-1.79,1.45-.78.33-1.72.5-2.82.5h-3.64v-1.95ZM407.76,257.95l2.2-.57,3.31,8.79h-2.68l-2.83-8.21Z"/>
  <polygon class="cls-1" points="79.79 184.32 205.93 0 330.64 184.32 285.71 184.32 205.93 68.54 129.04 184.32 79.79 184.32"/>
</svg>