<?xml version="1.0" encoding="UTF-8"?>
<svg id="Calque_1" data-name="Calque 1" xmlns="http://www.w3.org/2000/svg" viewBox="0 0 402.66 333.2">
  <defs>
    <style>
      .cls-1, .cls-2 {
        stroke-width: 0px;
      }

      .cls-2 {
        fill: #fff;
      }
    </style>
  </defs>
  <rect class="cls-1" x="85.7" width="227.89" height="216.39"/>
  <circle class="cls-2" cx="206.65" cy="64.78" r="45.01"/>
  <path class="cls-2" d="M104.54,89.05v112.03h49.47v-56.01s.64-11.33,9.25-11.33,9.9,9.9,9.9,9.9v57.45h49.79v-56.01s2.39-12.12,13.89-9.25c0,0,4.31,1.75,5.43,9.25,1.12,7.5.64,56.01.64,56.01h50.59v-85.06s-3.35-24.58-23.62-30.8c0,0-11.81,23.78-39.42,36.55s-62.39,4.14-82.98-33.51l-42.93.8v-.02Z"/>
  <path class="cls-1" d="M0,308.39v-52.72c0-6.54,1.98-11.88,5.95-16.02,3.96-4.14,9.11-6.22,15.43-6.22,7.5,0,13.27,3.45,17.31,10.34,2.46-3.71,5.11-6.37,7.93-7.96,2.82-1.59,6.3-2.38,10.45-2.38,6.57,0,11.61,2.07,15.11,6.22,3.5,4.14,5.25,10.11,5.25,17.9v50.85h-21.75v-47.58c0-2.36-.19-3.92-.56-4.69-.38-.77-1.13-1.15-2.28-1.15-2.14,0-3.22,1.82-3.22,5.47v47.96h-21.75v-47.58c0-2.32-.2-3.88-.59-4.66-.39-.79-1.16-1.18-2.3-1.18-2.14,0-3.21,1.95-3.21,5.84v47.58H0Z"/>
  <path class="cls-1" d="M118.79,288.35v20.74c-1.64.28-3.14.43-4.5.43-8.04,0-14.74-2.64-20.09-7.93-5.36-5.29-8.04-11.91-8.04-19.88s2.71-14.32,8.12-19.72c5.41-5.39,11.99-8.09,19.74-8.09,8.64,0,15.46,2.53,20.44,7.58,4.98,5.06,7.47,11.96,7.47,20.71v26.2h-20.04v-24.75c0-2.82-.69-5.07-2.06-6.75-1.38-1.68-3.22-2.52-5.55-2.52-2.11,0-3.93.77-5.46,2.3-1.54,1.54-2.3,3.36-2.3,5.47,0,2.22.7,4.04,2.09,5.47,1.39,1.43,3.16,2.14,5.3,2.14,1.75,0,3.38-.46,4.88-1.39Z"/>
  <path class="cls-1" d="M182.93,254.44v21.43c-1.39-.79-2.66-1.18-3.8-1.18-3.64,0-5.46,2.79-5.46,8.36v25.34h-20.04v-29.2c0-7.72,2.11-13.87,6.32-18.46,4.21-4.59,9.84-6.89,16.88-6.89,1.57,0,3.61.2,6.11.59Z"/>
  <path class="cls-1" d="M196.05,254.97h20.04v45.12c0,9.43-2.23,16.93-6.7,22.5-5.68,7.07-13.5,10.61-23.47,10.61-3.04,0-6.46-.64-10.29-1.93v-18.91c3.36,1.57,6.2,2.36,8.52,2.36,7.93,0,11.89-5.84,11.89-17.52v-42.22ZM205.49,231.13c2.71,0,5.06.96,7.05,2.87,1.98,1.91,2.97,4.17,2.97,6.78,0,2.79-.94,5.07-2.81,6.86-1.88,1.79-4.28,2.68-7.21,2.68s-5.33-.89-7.21-2.68c-1.88-1.79-2.81-4.07-2.81-6.86,0-2.61.99-4.87,2.97-6.78,1.98-1.91,4.33-2.87,7.05-2.87Z"/>
  <path class="cls-1" d="M257.51,288.35v20.74c-1.64.28-3.14.43-4.5.43-8.04,0-14.74-2.64-20.09-7.93-5.36-5.29-8.04-11.91-8.04-19.88s2.71-14.32,8.12-19.72c5.41-5.39,11.99-8.09,19.74-8.09,8.64,0,15.46,2.53,20.44,7.58,4.98,5.06,7.47,11.96,7.47,20.71v26.2h-20.04v-24.75c0-2.82-.69-5.07-2.06-6.75-1.38-1.68-3.22-2.52-5.55-2.52-2.11,0-3.93.77-5.47,2.3-1.54,1.54-2.3,3.36-2.3,5.47,0,2.22.7,4.04,2.09,5.47,1.39,1.43,3.16,2.14,5.3,2.14,1.75,0,3.38-.46,4.88-1.39Z"/>
  <path class="cls-1" d="M339.98,308.39h-20.04v-30.17c0-3.07-1.27-4.61-3.81-4.61s-3.75,1.54-3.75,4.61v30.17h-20.04v-29.79c0-6.97,2.3-12.83,6.91-17.6,4.61-4.77,10.25-7.15,16.93-7.15,7.64,0,13.77,2.77,18.38,8.31,3.61,4.32,5.41,10.34,5.41,18.06v28.18Z"/>
  <path class="cls-1" d="M402.37,271.28l-26.66,14.56c-1.14-1.12-2.02-2.25-2.64-3.38-.86-1.57-1.41-3.26-1.67-5.07l8.94-4.88c-2.53-3.14-5.44-3.81-8.73-2.01-2.19,1.2-3.47,3.11-3.83,5.73-.36,2.62.26,5.39,1.85,8.3s3.67,5.14,6.03,6.29c2.36,1.15,4.62,1.14,6.78-.04,1.76-.96,2.97-2.76,3.64-5.41l16.59,6.57c-2.67,6.22-6.86,10.89-12.56,14-6.96,3.8-14.08,4.66-21.37,2.57-7.28-2.09-12.81-6.58-16.58-13.47-3.75-6.87-4.53-13.97-2.33-21.32,2.19-7.34,6.77-12.92,13.73-16.72,6.8-3.71,13.78-4.52,20.93-2.42,7.15,2.1,12.57,6.53,16.27,13.31.38.69.91,1.82,1.61,3.39Z"/>
</svg>