<svg width="91" height="91" viewBox="0 0 91 91" fill="none" xmlns="http://www.w3.org/2000/svg">
<mask id="mask0_1464_6609" style="mask-type:alpha" maskUnits="userSpaceOnUse" x="0" y="0" width="91" height="91">
<rect width="91" height="91" fill="#D9D9D9"/>
</mask>
<g mask="url(#mask0_1464_6609)">
<path fill-rule="evenodd" clip-rule="evenodd" d="M1.49303 50.7145L20.4394 64.3515L13.1766 86.4335C12.7345 87.8723 13.1766 89.4361 14.4397 90.3119C15.6396 91.1877 17.3448 91.1877 18.5448 90.3119L37.4911 76.6749L56.4375 90.3119C57.069 90.7498 57.7637 91 58.5216 91C59.2794 91 59.9741 90.8123 60.6057 90.3119C61.8056 89.4361 62.374 87.8723 61.8688 86.4335L54.606 64.3515L73.5524 50.7145C74.7523 49.8388 75.3207 48.2749 74.8155 46.8361C74.3734 45.3974 72.984 44.459 71.4683 44.459H48.0379L40.7752 22.3771C40.3331 20.9383 38.9437 20 37.428 20C35.9123 20 34.586 20.9383 34.0808 22.3771L26.818 44.459H3.51397C1.99826 44.459 0.672017 45.3974 0.166781 46.8361C-0.275301 48.2749 0.166781 49.8388 1.42987 50.7145H1.49303Z" stroke="#010101" stroke-width="0.5" stroke-miterlimit="10"/>
</g>
</svg>
