<svg width="91" height="91" viewBox="0 0 91 91" fill="none" xmlns="http://www.w3.org/2000/svg">
<mask id="mask0_954_3873" style="mask-type:alpha" maskUnits="userSpaceOnUse" x="0" y="0" width="91" height="91">
<rect width="91" height="91" fill="#D9D9D9"/>
</mask>
<g mask="url(#mask0_954_3873)">
<path d="M66.5268 58.6837V68.5993C66.5268 70.0158 65.3694 71.1688 63.9474 71.1688H63.6333V80.2937C63.6333 81.7103 62.4759 82.8632 61.0539 82.8632H4.14159C2.40545 82.8632 1 81.4632 1 79.7337V41.0597C1 39.5443 1.59525 38.1278 2.67 37.0572C3.74475 35.9866 5.1502 35.4101 6.67139 35.4101H13.4506V13.7342C13.4506 12.2189 14.6907 11 16.1953 11H41.7579C43.2791 11 44.5027 12.2353 44.5027 13.7342V35.3936H57.036C58.4579 35.3936 59.6154 36.5466 59.6154 37.9631V44.4198H61.0539C62.4759 44.4198 63.6333 45.5728 63.6333 46.9893V56.1142H63.9474C65.3694 56.1142 66.5268 57.2672 66.5268 58.6837Z" stroke="#010101" stroke-width="0.5" stroke-miterlimit="10"/>
<path d="M44.5024 38.4902V44.288H55.9113V38.7538C55.9113 38.6055 55.779 38.4902 55.6302 38.4902H44.4858H44.5024Z" stroke="#010101" stroke-width="0.5" stroke-miterlimit="10"/>
<path d="M40.5835 20.8008C36.764 20.2737 33.7547 17.6713 33.1264 14.3936H24.7599C24.1315 17.6713 21.1222 20.2737 17.3027 20.8008V44.3874H40.5835V20.8008Z" stroke="#010101" stroke-width="0.5" stroke-miterlimit="10"/>
<path d="M3.94336 41.5376C3.94336 43.1353 5.36534 44.42 7.11801 44.42H13.4508V38.6387H7.11801C6.27475 38.6387 5.48108 38.9352 4.88583 39.4787C4.27405 40.0222 3.94336 40.747 3.94336 41.5211V41.5376Z" stroke="#010101" stroke-width="0.5" stroke-miterlimit="10"/>
<path d="M63.7491 56.5592C63.7491 56.3122 63.6169 56.1145 63.4515 56.1145H49.2482C47.7436 56.1145 46.52 57.9098 46.52 60.1005V67.1501C46.52 69.3408 47.7436 71.1361 49.2482 71.1361H63.4515C63.6169 71.1361 63.7491 70.9385 63.7491 70.6914V56.5592Z" stroke="#010101" stroke-width="0.5" stroke-miterlimit="10"/>
<path d="M51.7779 65.668C52.9651 65.668 53.9274 64.7093 53.9274 63.5267C53.9274 62.3442 52.9651 61.3855 51.7779 61.3855C50.5908 61.3855 49.6284 62.3442 49.6284 63.5267C49.6284 64.7093 50.5908 65.668 51.7779 65.668Z" stroke="#010101" stroke-width="0.5" stroke-miterlimit="10"/>
<path d="M28.6955 70.2961H7.77914C7.15818 70.2961 6.65479 70.7976 6.65479 71.4162V76.094C6.65479 76.7125 7.15818 77.214 7.77914 77.214H28.6955C29.3164 77.214 29.8198 76.7125 29.8198 76.094V71.4162C29.8198 70.7976 29.3164 70.2961 28.6955 70.2961Z" stroke="#010101" stroke-width="0.5" stroke-miterlimit="10"/>
<path d="M13.4507 44.4365H44.5028H59.6154" stroke="#010101" stroke-width="0.5" stroke-miterlimit="10"/>
<path d="M44.5024 35.2622V39.6435" stroke="#010101" stroke-width="0.5" stroke-miterlimit="10"/>
<path d="M13.4507 35.3938V38.688" stroke="#010101" stroke-width="0.5" stroke-miterlimit="10"/>
<path fill-rule="evenodd" clip-rule="evenodd" d="M25.1899 67.0676C18.791 67.0676 13.5991 72.2395 13.5991 78.5974C13.5991 84.9552 18.791 90.1436 25.1899 90.1436C31.5888 90.1436 36.7807 84.9717 36.7807 78.5974C36.7807 72.2231 31.5888 67.0676 25.1899 67.0676Z" fill="white" stroke="#010101" stroke-width="0.5" stroke-miterlimit="10"/>
<path d="M19.6841 78.0211L23.8508 82.4188L30.6962 74.7927" stroke="#010101" stroke-width="0.5" stroke-linecap="round" stroke-linejoin="round"/>
<path d="M64.2285 56.5427C63.8482 56.5427 63.4679 56.5262 63.0876 56.5098C62.9058 61.237 62.7239 65.9806 62.542 70.7078H64.2285C64.2285 65.9971 64.2285 61.2699 64.2285 56.5427Z" fill="white"/>
<path d="M32.5148 40.2367C33.3747 39.6108 33.7715 38.392 33.3416 37.4037C33.077 36.8108 32.4818 36.366 31.8369 36.3496C30.9937 36.3331 30.2827 37.0249 30.0181 37.8155C29.8362 38.3755 29.8362 39.0179 29.5221 39.5285C29.0922 40.2367 28.1001 40.5003 27.356 40.1709C26.612 39.8414 26.149 38.9685 26.2317 38.1449C26.3144 37.3214 26.9261 36.5966 27.6867 36.2837" stroke="#231F20" stroke-width="0.5" stroke-linecap="round" stroke-linejoin="round"/>
<path d="M33.54 38.3921H34.714" stroke="#231F20" stroke-width="0.5" stroke-linecap="round" stroke-linejoin="round"/>
<path d="M25.0576 38.4252L26.2316 38.4087" stroke="#231F20" stroke-width="0.5" stroke-linecap="round" stroke-linejoin="round"/>
</g>
</svg>
