<svg width="91" height="91" viewBox="0 0 91 91" fill="none" xmlns="http://www.w3.org/2000/svg">
<mask id="mask0_954_3758" style="mask-type:alpha" maskUnits="userSpaceOnUse" x="0" y="0" width="91" height="91">
<rect width="91" height="91" fill="#D9D9D9"/>
</mask>
<g mask="url(#mask0_954_3758)">
<path d="M22.6304 46.4206L29.3872 53.573L40.4899 41.1714" stroke="#010101" stroke-width="0.5" stroke-linecap="round" stroke-linejoin="round"/>
<path fill-rule="evenodd" clip-rule="evenodd" d="M31.0686 28.0247C20.7113 28.0247 12.2891 36.4457 12.2891 46.8015C12.2891 57.1572 20.7113 65.5783 31.0686 65.5783C41.4258 65.5783 49.8481 57.1572 49.8481 46.8015C49.8481 36.4457 41.4258 28.0247 31.0686 28.0247Z" stroke="#010101" stroke-width="0.5" stroke-miterlimit="10"/>
<path fill-rule="evenodd" clip-rule="evenodd" d="M55.0662 60.7574C54.4634 57.7919 55.6689 54.9056 58.2225 53.2245C63.076 50.0369 63.076 42.9639 58.2225 39.7763C55.6689 38.0952 54.4634 35.2089 55.0662 32.2434C56.224 26.5818 51.1802 21.5863 45.4544 22.7281C42.4566 23.3307 39.554 22.1255 37.8569 19.6039C34.6371 14.7987 27.4996 14.7987 24.264 19.6039C22.5827 22.1255 19.6643 23.3149 16.6665 22.7281C10.9565 21.5863 5.89685 26.5818 7.05471 32.2434C7.65743 35.2089 6.45199 38.0952 3.91422 39.7763C-0.95513 42.9798 -0.95513 50.0211 3.91422 53.2245C6.45199 54.9056 7.67329 57.7919 7.05471 60.7574C5.89685 66.419 10.9407 71.4145 16.6665 70.2727C19.6167 69.6859 22.5351 70.8278 24.264 73.3969C27.4996 78.2021 34.6212 78.2021 37.8569 73.3969C39.5382 70.8753 42.4566 69.6859 45.4544 70.2727C51.1643 71.4145 56.224 66.4349 55.0662 60.7574Z" stroke="#010101" stroke-width="0.5" stroke-miterlimit="10"/>
<path d="M8.51431 65.991L0.203107 80.3907C-0.463058 81.5484 0.615495 82.9281 1.90024 82.5951L9.83078 80.47L11.9562 88.3994C12.3051 89.684 14.034 89.9219 14.7001 88.7642L24.1692 72.3662" stroke="#010101" stroke-width="0.5" stroke-miterlimit="10"/>
<path d="M37.4126 74.0312L46.8817 90.4292C47.5478 91.5869 49.2767 91.3649 49.6256 90.0645L51.751 82.1351L59.6815 84.2601C60.9821 84.609 62.029 83.2135 61.3787 82.0558L53.0675 67.6401" stroke="#010101" stroke-width="0.5" stroke-miterlimit="10"/>
</g>
</svg>
