<svg width="91" height="91" viewBox="0 0 91 91" fill="none" xmlns="http://www.w3.org/2000/svg">
<mask id="mask0_954_3833" style="mask-type:alpha" maskUnits="userSpaceOnUse" x="0" y="0" width="91" height="91">
<rect width="91" height="91" fill="#D9D9D9"/>
</mask>
<g mask="url(#mask0_954_3833)">
<path d="M68.5996 41.8292C67.1335 38.51 62.5499 29.3552 52.1017 23.9519C40.8202 18.1318 26.452 18.6567 15.6643 26.0824C6.97551 32.0878 3.53394 40.5324 2.37646 43.9133" stroke="#010101" stroke-width="0.5" stroke-linecap="round" stroke-linejoin="round"/>
<path d="M72.1493 37.491L69.1552 43.5581L62.0869 40.1926" stroke="#010101" stroke-width="0.5" stroke-linecap="round" stroke-linejoin="round"/>
<path d="M3.44141 69.108C4.98471 72.3963 9.78438 81.443 20.356 86.5839C31.7765 92.1416 46.1292 91.2616 56.7317 83.5735C65.2816 77.3674 68.5071 68.8456 69.5874 65.4492" stroke="#010101" stroke-width="0.5" stroke-linecap="round" stroke-linejoin="round"/>
<path d="M0 73.5077L2.83968 67.3943L9.98517 70.59" stroke="#010101" stroke-width="0.5" stroke-linecap="round" stroke-linejoin="round"/>
<path fill-rule="evenodd" clip-rule="evenodd" d="M25.1094 52.8363L30.7424 56.9274L28.5972 63.5503C28.4583 63.9826 28.5972 64.4457 28.983 64.7081C29.3534 64.9706 29.8473 64.9706 30.2023 64.7081L35.8353 60.6171L41.4684 64.7081C41.6536 64.8471 41.8696 64.9088 42.0857 64.9088C42.3018 64.9088 42.5178 64.8471 42.703 64.7081C43.0734 64.4457 43.2277 63.9671 43.0888 63.5503L40.9436 56.9274L46.5767 52.8363C46.9471 52.5739 47.1014 52.0953 46.9625 51.6785C46.8236 51.2462 46.4224 50.9683 45.9748 50.9683H38.9991L36.8539 44.3454C36.715 43.9131 36.3137 43.6353 35.8662 43.6353C35.4186 43.6353 35.0174 43.9286 34.8785 44.3454L32.7333 50.9683H25.773C25.3254 50.9683 24.9242 51.2616 24.7853 51.6785C24.6464 52.1107 24.7853 52.5739 25.1556 52.8363H25.1094Z" stroke="#010101" stroke-width="0.5" stroke-miterlimit="10"/>
</g>
</svg>
