<?xml version="1.0" encoding="UTF-8"?>
<svg id="Calque_1" data-name="Calque 1" xmlns="http://www.w3.org/2000/svg" viewBox="0 0 396.56 180.19">
  <defs>
    <style>
      .cls-1 {
        fill: none;
        stroke: #000;
        stroke-miterlimit: 10;
      }

      .cls-2 {
        stroke-width: 0px;
      }
    </style>
  </defs>
  <polygon class="cls-2" points="0 133.09 0 31.34 102.46 0 102.46 133.09 58.8 133.09 59.5 66.54 92.95 66.54 93.3 47.88 8.45 48.59 8.8 66.54 41.19 66.54 41.19 133.09 0 133.09"/>
  <polygon class="cls-2" points="193.65 48.59 108.79 48.59 108.79 133.09 193.65 133.09 193.65 82.04 142.95 82.04 142.95 99.64 177.45 99.29 177.8 115.48 126.75 116.19 127.1 66.54 193.65 66.54 193.65 48.59"/>
  <polygon class="cls-2" points="210.9 48.59 296.81 48.59 296.81 65.14 227.8 66.54 228.5 115.13 295.4 115.13 295.63 133.09 210.9 133.09 210.9 48.59"/>
  <polygon class="cls-2" points="311.94 48.59 311.94 133.09 396.53 133.09 396.53 115.57 329.46 116.01 329.2 65.49 396.53 65.14 396.53 48.59 311.94 48.59"/>
  <path class="cls-2" d="M14.49,179.31c-.86.43-2.58.86-4.79.86-5.11,0-8.96-3.23-8.96-9.17s3.85-9.52,9.47-9.52c2.26,0,3.69.48,4.3.81l-.56,1.91c-.89-.43-2.15-.75-3.66-.75-4.25,0-7.08,2.72-7.08,7.48,0,4.44,2.56,7.29,6.97,7.29,1.43,0,2.88-.3,3.82-.75l.48,1.86Z"/>
  <path class="cls-2" d="M37.03,170.65c0,6.24-3.79,9.55-8.42,9.55s-8.15-3.71-8.15-9.2c0-5.76,3.58-9.52,8.42-9.52s8.15,3.79,8.15,9.17ZM22.96,170.94c0,3.87,2.1,7.34,5.78,7.34s5.81-3.42,5.81-7.53c0-3.6-1.88-7.37-5.78-7.37s-5.81,3.58-5.81,7.56Z"/>
  <path class="cls-2" d="M44.75,179.9v-18.13h2.56l5.81,9.17c1.35,2.12,2.39,4.04,3.26,5.89l.05-.03c-.22-2.42-.27-4.63-.27-7.45v-7.59h2.21v18.13h-2.37l-5.76-9.2c-1.26-2.02-2.47-4.09-3.39-6.05l-.08.03c.13,2.29.19,4.47.19,7.48v7.75h-2.21Z"/>
  <path class="cls-2" d="M66.8,177.05c1.05.65,2.58,1.18,4.2,1.18,2.39,0,3.79-1.26,3.79-3.09,0-1.69-.97-2.66-3.42-3.6-2.96-1.05-4.79-2.58-4.79-5.14,0-2.82,2.34-4.92,5.86-4.92,1.86,0,3.2.43,4.01.89l-.65,1.91c-.59-.32-1.8-.86-3.44-.86-2.47,0-3.42,1.48-3.42,2.72,0,1.69,1.1,2.53,3.6,3.5,3.07,1.18,4.63,2.66,4.63,5.33,0,2.8-2.07,5.22-6.35,5.22-1.75,0-3.66-.51-4.63-1.16l.59-1.96Z"/>
  <path class="cls-2" d="M88.5,163.76h-5.51v-1.99h13.42v1.99h-5.54v16.14h-2.37v-16.14Z"/>
  <path class="cls-2" d="M103.11,162.01c1.18-.24,2.88-.38,4.49-.38,2.5,0,4.12.46,5.25,1.48.91.81,1.43,2.04,1.43,3.44,0,2.39-1.51,3.98-3.42,4.63v.08c1.4.48,2.23,1.78,2.66,3.66.59,2.53,1.02,4.28,1.4,4.98h-2.42c-.3-.51-.7-2.07-1.21-4.33-.54-2.5-1.51-3.44-3.63-3.52h-2.21v7.86h-2.34v-17.89ZM105.45,170.27h2.39c2.5,0,4.09-1.37,4.09-3.44,0-2.34-1.69-3.36-4.17-3.39-1.13,0-1.94.11-2.31.22v6.62Z"/>
  <path class="cls-2" d="M124.6,161.77v10.73c0,4.06,1.8,5.78,4.22,5.78,2.69,0,4.41-1.78,4.41-5.78v-10.73h2.37v10.57c0,5.57-2.93,7.86-6.86,7.86-3.71,0-6.51-2.12-6.51-7.75v-10.68h2.37Z"/>
  <path class="cls-2" d="M146.68,161.77v18.13h-2.34v-18.13h2.34Z"/>
  <path class="cls-2" d="M155.12,177.05c1.05.65,2.58,1.18,4.2,1.18,2.39,0,3.79-1.26,3.79-3.09,0-1.69-.97-2.66-3.42-3.6-2.96-1.05-4.79-2.58-4.79-5.14,0-2.82,2.34-4.92,5.86-4.92,1.86,0,3.2.43,4.01.89l-.65,1.91c-.59-.32-1.8-.86-3.44-.86-2.47,0-3.42,1.48-3.42,2.72,0,1.69,1.1,2.53,3.6,3.5,3.07,1.18,4.63,2.66,4.63,5.33,0,2.8-2.07,5.22-6.35,5.22-1.75,0-3.66-.51-4.63-1.16l.59-1.96Z"/>
  <path class="cls-2" d="M188.88,170.65c0,6.24-3.79,9.55-8.42,9.55s-8.15-3.71-8.15-9.2c0-5.76,3.58-9.52,8.42-9.52s8.15,3.79,8.15,9.17ZM174.81,170.94c0,3.87,2.1,7.34,5.78,7.34s5.81-3.42,5.81-7.53c0-3.6-1.88-7.37-5.78-7.37s-5.81,3.58-5.81,7.56Z"/>
  <path class="cls-2" d="M196.59,179.9v-18.13h2.56l5.81,9.17c1.34,2.12,2.39,4.04,3.25,5.89l.05-.03c-.21-2.42-.27-4.63-.27-7.45v-7.59h2.21v18.13h-2.37l-5.76-9.2c-1.26-2.02-2.48-4.09-3.39-6.05l-.08.03c.13,2.29.19,4.47.19,7.48v7.75h-2.21Z"/>
  <path class="cls-2" d="M218.65,177.05c1.05.65,2.58,1.18,4.2,1.18,2.39,0,3.79-1.26,3.79-3.09,0-1.69-.97-2.66-3.42-3.6-2.96-1.05-4.79-2.58-4.79-5.14,0-2.82,2.34-4.92,5.86-4.92,1.86,0,3.2.43,4.01.89l-.65,1.91c-.59-.32-1.8-.86-3.44-.86-2.47,0-3.42,1.48-3.42,2.72,0,1.69,1.1,2.53,3.6,3.5,3.07,1.18,4.63,2.66,4.63,5.33,0,2.8-2.07,5.22-6.35,5.22-1.75,0-3.66-.51-4.63-1.16l.59-1.96Z"/>
  <path class="cls-2" d="M256.68,171.4h-7.05v6.54h7.86v1.96h-10.2v-18.13h9.79v1.96h-7.45v5.73h7.05v1.94Z"/>
  <path class="cls-2" d="M265.2,179.9v-18.13h2.56l5.81,9.17c1.34,2.12,2.39,4.04,3.25,5.89l.05-.03c-.21-2.42-.27-4.63-.27-7.45v-7.59h2.21v18.13h-2.37l-5.76-9.2c-1.26-2.02-2.47-4.09-3.39-6.05l-.08.03c.13,2.29.19,4.47.19,7.48v7.75h-2.21Z"/>
  <path class="cls-2" d="M287.26,177.05c1.05.65,2.58,1.18,4.2,1.18,2.39,0,3.79-1.26,3.79-3.09,0-1.69-.97-2.66-3.42-3.6-2.96-1.05-4.79-2.58-4.79-5.14,0-2.82,2.34-4.92,5.86-4.92,1.86,0,3.2.43,4.01.89l-.65,1.91c-.59-.32-1.8-.86-3.44-.86-2.47,0-3.42,1.48-3.42,2.72,0,1.69,1.1,2.53,3.6,3.5,3.07,1.18,4.63,2.66,4.63,5.33,0,2.8-2.07,5.22-6.35,5.22-1.75,0-3.66-.51-4.63-1.16l.59-1.96Z"/>
  <path class="cls-2" d="M314.91,171.4h-7.05v6.54h7.86v1.96h-10.2v-18.13h9.79v1.96h-7.45v5.73h7.05v1.94Z"/>
  <path class="cls-2" d="M338.71,171.94c-.13-2.53-.3-5.57-.27-7.83h-.08c-.62,2.12-1.37,4.38-2.29,6.89l-3.2,8.8h-1.78l-2.93-8.64c-.86-2.56-1.59-4.9-2.1-7.05h-.05c-.05,2.26-.19,5.3-.35,8.02l-.48,7.77h-2.23l1.26-18.13h2.99l3.09,8.77c.75,2.23,1.37,4.22,1.83,6.11h.08c.46-1.83,1.1-3.82,1.91-6.11l3.23-8.77h2.99l1.13,18.13h-2.29l-.46-7.96Z"/>
  <path class="cls-2" d="M349.73,162.01c1.02-.21,2.64-.38,4.28-.38,2.34,0,3.85.4,4.98,1.32.94.7,1.51,1.78,1.51,3.2,0,1.75-1.16,3.28-3.07,3.98v.05c1.72.43,3.74,1.86,3.74,4.55,0,1.56-.62,2.74-1.53,3.63-1.26,1.16-3.31,1.69-6.27,1.69-1.61,0-2.85-.11-3.63-.21v-17.84ZM352.07,169.43h2.12c2.48,0,3.93-1.29,3.93-3.04,0-2.12-1.61-2.96-3.98-2.96-1.08,0-1.69.08-2.07.16v5.84ZM352.07,178.12c.46.08,1.13.11,1.96.11,2.42,0,4.65-.89,4.65-3.52,0-2.47-2.13-3.5-4.68-3.5h-1.94v6.91Z"/>
  <path class="cls-2" d="M368.99,161.77h2.34v16.17h7.75v1.96h-10.09v-18.13Z"/>
  <path class="cls-2" d="M395.75,171.4h-7.05v6.54h7.86v1.96h-10.2v-18.13h9.79v1.96h-7.45v5.73h7.05v1.94Z"/>
  <line class="cls-1" x1=".75" y1="147.2" x2="396.53" y2="148.74"/>
</svg>